HIERARCHY
ROOT Hips
{
    OFFSET   0.000000   0.000000   0.000000
    CHANNELS 6 Xposition Yposition Zposition Zrotation Xrotation Yrotation
    JOINT Chest
    {
        OFFSET   0.000000   8.007230   0.000000
        CHANNELS 3 Zrotation Xrotation Yrotation
        JOINT Chest2
        {
            OFFSET   0.000000  22.077100   0.000000
            CHANNELS 3 Zrotation Xrotation Yrotation
            JOINT Neck
            {
                OFFSET   0.000000  23.254800  -0.000021
                CHANNELS 3 Zrotation Xrotation Yrotation
                JOINT Head
                {
                    OFFSET   0.000000  14.370000   1.956610
                    CHANNELS 3 Zrotation Xrotation Yrotation
                    End Site
                    {
                        OFFSET   0.000000  19.566000   0.000000
                    }
                }
            }
            JOINT LeftCollar
            {
                OFFSET   3.911900  19.017000  -0.467063
                CHANNELS 3 Zrotation Xrotation Yrotation
                JOINT LeftShoulder
                {
                    OFFSET  10.383700   0.000000   0.000000
                    CHANNELS 3 Zrotation Xrotation Yrotation
                    JOINT LeftElbow
                    {
                        OFFSET  26.662100   0.001529   0.000325
                        CHANNELS 3 Zrotation Xrotation Yrotation
                        JOINT LeftWrist
                        {
                            OFFSET  28.869000  -0.000011  -0.000096
                            CHANNELS 3 Zrotation Xrotation Yrotation
                            JOINT LeftFinger0
                            {
                                OFFSET   2.044650  -2.323460   3.252850
                                CHANNELS 3 Zrotation Xrotation Yrotation
                                JOINT LeftFinger01
                                {
                                    OFFSET   3.088130   0.000000   0.000000
                                    CHANNELS 3 Zrotation Xrotation Yrotation
                                    JOINT LeftFinger02
                                    {
                                        OFFSET   2.639460   0.000000   0.000000
                                        CHANNELS 3 Zrotation Xrotation Yrotation
                                        End Site
                                        {
                                            OFFSET   2.582190   0.000000   0.000000
                                        }
                                    }
                                }
                            }
                            JOINT LeftFinger1
                            {
                                OFFSET   8.364480   0.000000   3.252850
                                CHANNELS 3 Zrotation Xrotation Yrotation
                                JOINT LeftFinger11
                                {
                                    OFFSET   4.646930   0.000000   0.000000
                                    CHANNELS 3 Zrotation Xrotation Yrotation
                                    JOINT LeftFinger12
                                    {
                                        OFFSET   2.323460   0.000000   0.000000
                                        CHANNELS 3 Zrotation Xrotation Yrotation
                                        End Site
                                        {
                                            OFFSET   2.273050   0.000000   0.000000
                                        }
                                    }
                                }
                            }
                            JOINT LeftFinger2
                            {
                                OFFSET   8.364480   0.000016   1.078090
                                CHANNELS 3 Zrotation Xrotation Yrotation
                                JOINT LeftFinger21
                                {
                                    OFFSET   5.111620   0.000000   0.000000
                                    CHANNELS 3 Zrotation Xrotation Yrotation
                                    JOINT LeftFinger22
                                    {
                                        OFFSET   2.788160   0.000017   0.000000
                                        CHANNELS 3 Zrotation Xrotation Yrotation
                                        End Site
                                        {
                                            OFFSET   2.727660   0.000000   0.000000
                                        }
                                    }
                                }
                            }
                            JOINT LeftFinger3
                            {
                                OFFSET   7.899780   0.000015  -1.078090
                                CHANNELS 3 Zrotation Xrotation Yrotation
                                JOINT LeftFinger31
                                {
                                    OFFSET   4.646920   0.000000   0.000000
                                    CHANNELS 3 Zrotation Xrotation Yrotation
                                    JOINT LeftFinger32
                                    {
                                        OFFSET   2.323470   0.000000   0.000000
                                        CHANNELS 3 Zrotation Xrotation Yrotation
                                        End Site
                                        {
                                            OFFSET   2.273050   0.000000   0.000000
                                        }
                                    }
                                }
                            }
                            JOINT LeftFinger4
                            {
                                OFFSET   7.435090   0.000000  -3.252850
                                CHANNELS 3 Zrotation Xrotation Yrotation
                                JOINT LeftFinger41
                                {
                                    OFFSET   3.717550   0.000000   0.000000
                                    CHANNELS 3 Zrotation Xrotation Yrotation
                                    JOINT LeftFinger42
                                    {
                                        OFFSET   1.858760   0.000000   0.000000
                                        CHANNELS 3 Zrotation Xrotation Yrotation
                                        End Site
                                        {
                                            OFFSET   1.818440   0.000000   0.000000
                                        }
                                    }
                                }
                            }
                        }
                    }
                }
            }
            JOINT RightCollar
            {
                OFFSET  -3.911900  19.017000  -0.467062
                CHANNELS 3 Zrotation Xrotation Yrotation
                JOINT RightShoulder
                {
                    OFFSET -10.383700   0.000015   0.000000
                    CHANNELS 3 Zrotation Xrotation Yrotation
                    JOINT RightElbow
                    {
                        OFFSET -26.662100   0.001341   0.000385
                        CHANNELS 3 Zrotation Xrotation Yrotation
                        JOINT RightWrist
                        {
                            OFFSET -28.869000   0.000025  -0.000080
                            CHANNELS 3 Zrotation Xrotation Yrotation
                            JOINT RightFinger0
                            {
                                OFFSET  -2.044650  -2.323490   3.252850
                                CHANNELS 3 Zrotation Xrotation Yrotation
                                JOINT RightFinger01
                                {
                                    OFFSET  -3.088130   0.000000   0.000000
                                    CHANNELS 3 Zrotation Xrotation Yrotation
                                    JOINT RightFinger02
                                    {
                                        OFFSET  -2.639460   0.000000   0.000000
                                        CHANNELS 3 Zrotation Xrotation Yrotation
                                        End Site
                                        {
                                            OFFSET  -2.582190   0.000000   0.000000
                                        }
                                    }
                                }
                            }
                            JOINT RightFinger1
                            {
                                OFFSET  -8.364480   0.000000   3.252850
                                CHANNELS 3 Zrotation Xrotation Yrotation
                                JOINT RightFinger11
                                {
                                    OFFSET  -4.646930   0.000000   0.000000
                                    CHANNELS 3 Zrotation Xrotation Yrotation
                                    JOINT RightFinger12
                                    {
                                        OFFSET  -2.323470   0.000000   0.000000
                                        CHANNELS 3 Zrotation Xrotation Yrotation
                                        End Site
                                        {
                                            OFFSET  -2.273050   0.000000   0.000000
                                        }
                                    }
                                }
                            }
                            JOINT RightFinger2
                            {
                                OFFSET  -8.364480   0.000000   1.078090
                                CHANNELS 3 Zrotation Xrotation Yrotation
                                JOINT RightFinger21
                                {
                                    OFFSET  -5.111610   0.000000   0.000000
                                    CHANNELS 3 Zrotation Xrotation Yrotation
                                    JOINT RightFinger22
                                    {
                                        OFFSET  -2.788160   0.000000   0.000000
                                        CHANNELS 3 Zrotation Xrotation Yrotation
                                        End Site
                                        {
                                            OFFSET  -2.727660   0.000000   0.000000
                                        }
                                    }
                                }
                            }
                            JOINT RightFinger3
                            {
                                OFFSET  -7.899780   0.000000  -1.078090
                                CHANNELS 3 Zrotation Xrotation Yrotation
                                JOINT RightFinger31
                                {
                                    OFFSET  -4.646920   0.000000   0.000000
                                    CHANNELS 3 Zrotation Xrotation Yrotation
                                    JOINT RightFinger32
                                    {
                                        OFFSET  -2.323470   0.000000   0.000000
                                        CHANNELS 3 Zrotation Xrotation Yrotation
                                        End Site
                                        {
                                            OFFSET  -2.273050   0.000000   0.000000
                                        }
                                    }
                                }
                            }
                            JOINT RightFinger4
                            {
                                OFFSET  -7.435090   0.000000  -3.252850
                                CHANNELS 3 Zrotation Xrotation Yrotation
                                JOINT RightFinger41
                                {
                                    OFFSET  -3.717550   0.000000   0.000000
                                    CHANNELS 3 Zrotation Xrotation Yrotation
                                    JOINT RightFinger42
                                    {
                                        OFFSET  -1.858770   0.000000   0.000000
                                        CHANNELS 3 Zrotation Xrotation Yrotation
                                        End Site
                                        {
                                            OFFSET  -1.818440   0.000000   0.000000
                                        }
                                    }
                                }
                            }
                        }
                    }
                }
            }
        }
    }
    JOINT LeftHip
    {
        OFFSET   9.783010   0.000000   0.000000
        CHANNELS 3 Zrotation Xrotation Yrotation
        JOINT LeftKnee
        {
            OFFSET   0.000070 -41.789100   0.000028
            CHANNELS 3 Zrotation Xrotation Yrotation
            JOINT LeftAnkle
            {
                OFFSET   0.000087 -41.133200  -0.000100
                CHANNELS 3 Zrotation Xrotation Yrotation
                JOINT LeftToe
                {
                    OFFSET   0.000000  -6.358960  14.674500
                    CHANNELS 3 Zrotation Xrotation Yrotation
                    End Site
                    {
                        OFFSET   0.000000   0.000000   3.913200
                    }
                }
            }
        }
    }
    JOINT RightHip
    {
        OFFSET  -9.783020   0.000000   0.000000
        CHANNELS 3 Zrotation Xrotation Yrotation
        JOINT RightKnee
        {
            OFFSET   0.000044 -41.789100  -0.000870
            CHANNELS 3 Zrotation Xrotation Yrotation
            JOINT RightAnkle
            {
                OFFSET  -0.000090 -41.133200  -0.000245
                CHANNELS 3 Zrotation Xrotation Yrotation
                JOINT RightToe
                {
                    OFFSET   0.000000  -6.358960  14.674500
                    CHANNELS 3 Zrotation Xrotation Yrotation
                    End Site
                    {
                        OFFSET   0.000000   0.000000   3.913200
                    }
                }
            }
        }
    }
}
MOTION
Frames: 6
Frame Time:   0.016667
 -0.071720  89.987300  -0.456733  -1.486530  -0.138644  -1.691240  -0.200462   0.603008   0.262643  -0.403724   1.205080   0.527435   2.860930   0.489133  -0.015567   4.701640   0.986406   1.704330  -2.656790  -0.021841   0.516258 -72.391200  16.271500   4.301860  -3.260030  -4.837900 -16.618200  16.882100  -3.498140  11.556300  42.340200  31.739000 -71.278800 -20.969900  -0.007602  -0.002792  -5.477460  -0.003681  -0.003082 -41.041700  11.044600 -12.416800 -34.566200   0.003674  -0.002549 -24.658500  -0.006684   0.000548 -36.577000  -2.975910   4.004640 -54.079200   0.004745   0.007598 -36.193900  -0.001002   0.005470 -30.716600  -4.812390   8.036990 -46.582200   0.004518   0.002007 -31.023700   0.007319   0.002654 -41.109200  -6.185030   7.038350 -62.234900   0.000000   0.001854 -41.448500   0.000080   0.008606  11.176800   2.288380   2.981060  70.097600  10.881800  -3.998980   1.700650  -3.904290  13.185600 -23.860400 -15.279800  -2.155310 -36.779700  28.055700  70.743200  25.084700  -0.000886  -0.014917   7.542370   0.004838  -0.004515  32.371900   1.829210   2.882540  26.523800   0.002725  -0.002314  18.565200   0.002358  -0.003681  27.713300  -1.375760  -2.618040  30.418400   0.003056  -0.003179  20.258600   0.006382   0.007866  27.323300  -5.158600  -9.872230  30.608800  -0.002544   0.010305  20.385400  -0.006503   0.008652  36.617700  -6.691030  -8.910660  55.709500  -0.000259   0.000526  37.102500   0.008958   0.003435   1.508680  -1.268000   0.923606   0.591648   0.905785  14.221000  -5.747500  -2.038920   6.179840   0.000000   0.000000  -0.000000   2.325330  -3.658400  -7.321200  -2.626960   6.473720  -5.909020  -8.608340   0.492034  -2.392310   0.000000   0.000000   0.000000
 -0.076362  89.987200  -0.444809  -1.486740  -0.146325  -1.650060  -0.213961   0.608948   0.264004  -0.430768   1.216900   0.530325   2.876670   0.488917  -0.015732   4.727150   0.986560   1.703570  -2.630630  -0.040282   0.505272 -72.393000  16.254700   4.323860  -3.248630  -4.809460 -16.640500  16.863300  -3.492510  11.532700  42.324200  31.743700 -71.294700 -20.962400  -0.007619  -0.002823  -5.477460  -0.003689  -0.003085 -41.078500  11.062900 -12.417600 -34.597700   0.003681  -0.002535 -24.687800  -0.006686   0.000554 -36.573800  -2.975990   3.996100 -54.079200   0.004748   0.007601 -36.193900  -0.001000   0.005472 -30.729900  -4.799730   8.009820 -46.599300   0.004524   0.002015 -31.035100   0.007320   0.002661 -41.119500  -6.168400   7.014320 -62.247100   0.000000   0.001850 -41.456600   0.000088   0.008610  11.215500   2.293940   2.981800  70.117600  10.881300  -4.007930   1.710620  -3.920720  13.144100 -23.831100 -15.280400  -2.143320 -36.754600  28.046700  70.718200  25.128000  -0.000888  -0.014918   7.564010   0.004838  -0.004518  32.376900   1.843480   2.904440  26.528600   0.002723  -0.002311  18.565300   0.002359  -0.003678  27.714800  -1.359360  -2.586320  30.444600   0.003059  -0.003183  20.276100   0.006382   0.007866  27.343700  -5.130660  -9.811700  30.695500  -0.002539   0.010305  20.443200  -0.006501   0.008651  36.642400  -6.654160  -8.854980  55.738500  -0.000261   0.000521  37.121800   0.008956   0.003429   1.504740  -1.255570   0.921138   0.594814   0.901586  14.205200  -5.750350  -2.044130   6.157250  -0.000000   0.000000  -0.000000   2.319190  -3.640120  -7.326530  -2.617190   6.483630  -5.947900  -8.597540   0.478823  -2.389240   0.000000   0.000000   0.000000
 -0.083211  89.987000  -0.424406  -1.487070  -0.160461  -1.589650  -0.237520   0.620439   0.266536  -0.477973   1.239760   0.535692   2.901100   0.488619  -0.015954   4.766990   0.986713   1.702800  -2.588140  -0.087458   0.494287 -72.401000  16.237500   4.367950  -3.217740  -4.753430 -16.680700  16.834700  -3.486890  11.507400  42.309600  31.745000 -71.313100 -20.955000  -0.007666  -0.002877  -5.477460  -0.003711  -0.003096 -41.115300  11.081100 -12.418400 -34.629200   0.003697  -0.002500 -24.717000  -0.006693   0.000571 -36.567100  -2.976070   3.987560 -54.079100   0.004757   0.007608 -36.193900  -0.000998   0.005478 -30.743600  -4.784250   7.982290 -46.616300   0.004539   0.002035 -31.046500   0.007324   0.002679 -41.130400  -6.146730   6.990220 -62.259300   0.000000   0.001838 -41.464700   0.000108   0.008620  11.281500   2.306220   2.986920  70.150700  10.880700  -4.020170   1.728150  -3.953860  13.085100 -23.781700 -15.284100  -2.111440 -36.727800  28.042100  70.689500  25.193800  -0.000895  -0.014927   7.596890   0.004837  -0.004521  32.382900   1.864260   2.936410  26.534200   0.002718  -0.002304  18.565400   0.002363  -0.003669  27.717300  -1.331300  -2.532120  30.484400   0.003067  -0.003192  20.302600   0.006383   0.007866  27.376400  -5.081380  -9.706290  30.830800  -0.002528   0.010304  20.533300  -0.006494   0.008651  36.676200  -6.588590  -8.758680  55.771700  -0.000268   0.000504  37.144000   0.008952   0.003416   1.497110  -1.232990   0.914509   0.598761   0.894292  14.189300  -5.753370  -2.051320   6.124250  -0.000000   0.000000   0.000000   2.306410  -3.604710  -7.333960  -2.599500   6.493270  -6.009220  -8.574450   0.465615  -2.377540   0.000000   0.000000   0.000000
 -0.087399  89.986900  -0.406854  -1.487110  -0.173517  -1.553920  -0.260573   0.632214   0.267807  -0.524156   1.263200   0.538377   2.920110   0.488558  -0.015994   4.798350   0.986236   1.731170  -2.549010  -0.163860   0.542008 -72.434200  16.255800   4.419870  -3.170200  -4.686930 -16.712400  16.818200  -3.497640  11.505600  42.290900  31.715700 -71.287200 -20.965200  -0.007750  -0.002927  -5.482600  -0.003749  -0.003119 -41.107900  11.073500 -12.415300 -34.622900   0.003711  -0.002453 -24.711100  -0.006703   0.000599 -36.555800  -2.976030   3.995360 -54.079100   0.004771   0.007618 -36.193500  -0.000997   0.005489 -30.734400  -4.782360   7.982050 -46.602400   0.004562   0.002068 -31.037300   0.007335   0.002706 -41.109700  -6.142850   6.991610 -62.227200   0.000000   0.001817 -41.443300   0.000139   0.008632  11.341500   2.327440   3.027270  70.177900  10.880700  -4.023940   1.744250  -3.995020  13.056100 -23.738900 -15.294600  -2.059570 -36.720500  28.049800  70.683400  25.226700  -0.000909  -0.014955   7.613310   0.004833  -0.004500  32.383900   1.874680   2.952570  26.535300   0.002715  -0.002297  18.565500   0.002366  -0.003654  27.719600  -1.305770  -2.482990  30.512600   0.003079  -0.003207  20.321400   0.006384   0.007864  27.402500  -5.031630  -9.602610  30.938000  -0.002513   0.010302  20.604700  -0.006486   0.008648  36.692800  -6.521140  -8.665430  55.776700  -0.000277   0.000475  37.147300   0.008946   0.003395   1.488170  -1.210760   0.902678   0.596885   0.886174  14.189700  -5.751940  -2.052800   6.105240  -0.000000   0.000000   0.000000   2.290300  -3.565240  -7.337090  -2.582700   6.482900  -6.050700  -8.544790   0.479111  -2.355810  -0.000000   0.000000   0.000000
 -0.089380  89.986800  -0.388902  -1.487000  -0.190287  -1.537420  -0.280940   0.647419   0.272013  -0.565005   1.293480   0.547249   2.930430   0.488467  -0.016029   4.815250   0.982978   1.771990  -2.525710  -0.251712   0.589732 -72.494700  16.287400   4.479170  -3.104070  -4.617220 -16.760900  16.808500  -3.530240  11.505700  42.274100  31.685500 -71.251100 -20.979600  -0.007854  -0.002975  -5.489830  -0.003798  -0.003150 -41.103700  11.060800 -12.401600 -34.616600   0.003732  -0.002392 -24.705200  -0.006719   0.000633 -36.548000  -2.975900   4.006290 -54.079000   0.004789   0.007631 -36.193200  -0.000995   0.005502 -30.725300  -4.780480   7.981810 -46.588500   0.004591   0.002112 -31.028000   0.007349   0.002741 -41.087900  -6.139980   6.993020 -62.195100   0.000000   0.001788 -41.421900   0.000178   0.008650  11.392900   2.341920   3.077540  70.202700  10.881500  -4.025360   1.761250  -4.037870  13.045000 -23.700200 -15.310300  -1.996200 -36.710900  28.065100  70.673500  25.264800  -0.000925  -0.014996   7.632370   0.004830  -0.004462  32.383500   1.881290   2.963130  26.535400   0.002710  -0.002289  18.565600   0.002371  -0.003635  27.721700  -1.282440  -2.438240  30.527200   0.003095  -0.003226  20.331100   0.006385   0.007860  27.421600  -4.987900  -9.513210  30.996700  -0.002492   0.010300  20.643800  -0.006474   0.008644  36.699400  -6.461430  -8.585710  55.777400  -0.000291   0.000439  37.147800   0.008937   0.003368   1.479190  -1.186760   0.890315   0.594183   0.881140  14.193100  -5.747740  -2.054850   6.096640   0.000000   0.000000   0.000000   2.272250  -3.521270  -7.337960  -2.564070   6.468470  -6.088450  -8.509570   0.501876  -2.323360   0.000000   0.000000   0.000000
 -0.083933  89.988300  -0.371077  -1.486870  -0.212561  -1.538860  -0.290774   0.666265   0.289379  -0.584964   1.331030   0.582356   2.927810   0.483848  -0.016224   4.810700   0.972931   1.783120  -2.541700  -0.325748   0.575077 -72.572000  16.314700   4.537180  -3.016980  -4.566910 -16.840500  16.810200  -3.580390  11.535600  42.285800  31.681300 -71.241600 -20.986100  -0.007960  -0.003003  -5.493060  -0.003856  -0.003186 -41.133300  11.047900 -12.371700 -34.636700   0.003764  -0.002318 -24.723900  -0.006740   0.000669 -36.553500  -2.975270   4.011060 -54.079000   0.004813   0.007647 -36.194600  -0.000992   0.005517 -30.727100  -4.774220   7.974800 -46.589500   0.004627   0.002165 -31.028600   0.007367   0.002783 -41.088300  -6.131790   6.987300 -62.195400   0.000000   0.001754 -41.422100   0.000227   0.008673  11.416300   2.333280   3.089620  70.222400  10.892500  -4.027160   1.780000  -4.069950  13.053700 -23.673000 -15.329500  -1.927770 -36.707100  28.098800  70.656300  25.330800  -0.000935  -0.015038   7.665390   0.004833  -0.004426  32.374900   1.883930   2.968280  26.528600   0.002699  -0.002282  18.565400   0.002381  -0.003613  27.723100  -1.267050  -2.409030  30.519700   0.003117  -0.003247  20.326100   0.006387   0.007854  27.420600  -4.970440  -9.480910  30.966900  -0.002465   0.010296  20.623900  -0.006458   0.008640  36.683800  -6.436980  -8.558100  55.751600  -0.000307   0.000396  37.130600   0.008926   0.003332   1.471520  -1.165990   0.881295   0.592551   0.887409  14.201600  -5.741070  -2.061750   6.096990  -0.000000   0.000000   0.000000   2.254430  -3.478510  -7.334190  -2.542580   6.462340  -6.125770  -8.469970   0.525467  -2.276240  -0.000000   0.000000   0.000000
